<?xml version="1.0" standalone="no"?>
<!DOCTYPE svg PUBLIC "-//W3C//DTD SVG 20010904//EN"
 "http://www.w3.org/TR/2001/REC-SVG-20010904/DTD/svg10.dtd">
<svg version="1.0" xmlns="http://www.w3.org/2000/svg"
 width="1920.000000pt" height="1920.000000pt" viewBox="0 0 1920.000000 1920.000000"
 preserveAspectRatio="xMidYMid meet">

<g transform="translate(0.000000,1920.000000) scale(0.100000,-0.100000)"
fill="#000000" stroke="none">
<path d="M9198 16671 c-152 -33 -178 -46 -284 -135 -225 -189 -262 -255 -284
-509 -13 -147 -3 -241 36 -370 14 -45 29 -121 34 -169 5 -48 17 -102 26 -119
9 -18 74 -91 144 -164 134 -139 176 -199 166 -244 -3 -14 -12 -66 -20 -116 -9
-49 -27 -146 -41 -214 -14 -68 -25 -134 -25 -147 0 -19 -29 -47 -127 -126
-255 -203 -400 -281 -808 -436 -143 -54 -287 -112 -320 -128 -54 -26 -62 -34
-78 -77 -24 -67 -61 -275 -91 -512 -14 -110 -46 -297 -72 -415 -60 -278 -62
-316 -31 -455 58 -253 59 -327 8 -655 -70 -451 -64 -729 18 -873 61 -108 82
-214 107 -537 8 -112 22 -237 29 -278 16 -82 55 -161 241 -489 128 -224 214
-391 244 -470 22 -56 23 -71 25 -483 1 -234 7 -492 13 -575 7 -82 26 -321 42
-530 17 -209 43 -616 58 -905 24 -441 26 -534 16 -580 -43 -191 -54 -436 -34
-785 l8 -150 -66 -330 c-61 -305 -66 -340 -66 -460 0 -77 9 -195 21 -290 42
-313 39 -402 -17 -522 -41 -88 -77 -138 -186 -255 -107 -114 -145 -165 -171
-229 -42 -102 -7 -295 65 -367 46 -46 97 -62 198 -62 207 0 474 122 738 335
54 44 114 90 132 102 58 40 68 71 60 199 l-6 112 40 48 c23 27 52 73 67 102
22 46 25 61 20 120 -3 46 1 94 14 154 65 297 111 966 108 1548 -2 323 -1 332
56 635 14 72 50 330 80 575 92 734 172 1256 251 1645 70 340 124 534 124 444
0 -31 84 -534 145 -874 120 -661 278 -1395 417 -1940 38 -150 41 -169 40 -295
0 -74 -10 -242 -21 -372 -23 -264 -26 -393 -11 -518 20 -165 59 -271 124 -340
32 -33 34 -39 40 -135 8 -137 31 -241 130 -590 47 -165 119 -423 160 -574 42
-151 77 -275 78 -276 4 -3 844 -75 875 -75 21 0 17 14 -71 273 -51 149 -112
320 -135 378 -57 146 -56 182 10 387 43 133 52 172 56 258 7 127 -12 195 -93
339 l-56 100 37 380 c46 472 47 469 -55 1090 l-49 300 -5 730 c-5 708 -25
1429 -47 1685 -20 233 -22 316 -10 386 16 93 55 220 90 291 15 32 36 83 46
113 10 30 26 72 36 92 11 21 19 50 19 67 0 56 38 151 90 223 90 128 140 212
155 262 16 52 19 187 6 266 -5 35 -1 64 21 132 36 114 72 310 98 539 27 231
29 333 7 429 -24 106 -24 153 2 245 20 68 24 106 25 250 1 189 -12 296 -54
450 -15 55 -31 118 -35 140 -3 22 -22 105 -42 184 -35 142 -35 146 -22 220 17
95 17 219 0 291 -8 30 -29 88 -47 129 -26 57 -35 92 -39 150 -3 50 -16 112
-39 181 -23 70 -40 149 -51 235 -19 160 -29 196 -57 222 -16 15 -104 43 -288
93 -370 100 -633 189 -787 265 -146 72 -220 132 -253 202 -12 26 -44 82 -70
123 -49 75 -90 193 -90 255 0 85 51 182 184 349 40 51 95 125 122 166 l49 73
0 291 0 291 -104 179 c-76 130 -112 183 -134 195 -16 9 -74 48 -129 88 -174
126 -250 151 -493 158 -123 4 -166 2 -237 -14z"/>
</g>
</svg>
