<?xml version="1.0" standalone="no"?>
<!DOCTYPE svg PUBLIC "-//W3C//DTD SVG 20010904//EN"
 "http://www.w3.org/TR/2001/REC-SVG-20010904/DTD/svg10.dtd">
<svg version="1.0" xmlns="http://www.w3.org/2000/svg"
 width="1920.000000pt" height="1920.000000pt" viewBox="0 0 1920.000000 1920.000000"
 preserveAspectRatio="xMidYMid meet">

<g transform="translate(0.000000,1920.000000) scale(0.100000,-0.100000)"
fill="#000000" stroke="none">
<path d="M9342 16269 c-116 -23 -234 -111 -292 -220 -33 -62 -154 -416 -189
-555 -31 -118 -69 -527 -107 -1144 -15 -252 -53 -329 -180 -375 -123 -44 -160
-61 -213 -100 -136 -100 -212 -248 -245 -475 -8 -58 -24 -208 -36 -335 -41
-459 -75 -676 -145 -916 -71 -247 -89 -363 -88 -569 0 -166 2 -195 25 -281 48
-177 93 -265 255 -498 78 -112 147 -248 172 -343 24 -89 119 -617 196 -1093
177 -1096 198 -1211 330 -1800 134 -598 168 -845 167 -1205 0 -152 4 -256 14
-320 14 -87 151 -850 240 -1335 44 -239 54 -403 31 -512 -17 -80 -66 -198
-107 -258 -47 -69 -71 -125 -96 -223 -42 -165 -28 -246 51 -286 58 -30 196
-26 395 12 85 16 158 28 161 26 3 -2 0 -47 -8 -101 -26 -193 -16 -382 22 -413
22 -18 209 -33 351 -27 176 6 248 37 294 127 32 62 39 110 70 435 34 362 47
478 131 1255 33 305 77 681 99 835 73 528 82 710 55 1100 -24 353 -38 808 -31
1025 12 373 28 527 101 975 100 613 116 766 114 1070 -1 247 -17 381 -68 595
-44 182 -37 313 24 437 44 91 109 168 233 277 213 187 287 328 286 546 0 110
-2 121 -46 250 -95 277 -132 486 -158 885 -5 94 -17 277 -25 408 -20 325 -44
430 -124 554 -67 104 -144 160 -322 233 -125 51 -194 125 -218 235 -6 28 -15
122 -21 210 -21 312 -45 436 -181 910 -108 376 -216 682 -269 766 -70 108
-186 184 -326 214 -74 16 -252 18 -322 4z m1255 -3859 c34 -151 154 -720 174
-825 12 -67 19 -133 16 -147 -4 -14 -30 -60 -57 -101 l-51 -75 -50 16 c-42 13
-49 20 -49 41 0 14 -3 55 -5 91 -9 112 -65 1003 -65 1033 0 26 2 28 37 25 37
-3 38 -4 50 -58z m-1993 -127 c87 -336 -4 -792 -194 -981 -41 -41 -97 -78
-106 -70 -2 2 41 184 95 404 54 219 115 472 136 562 21 89 42 159 46 155 4 -5
15 -36 23 -70z m1170 -4185 c2 -24 14 -169 26 -323 11 -154 41 -480 65 -725
53 -536 71 -759 86 -1075 18 -376 3 -850 -39 -1175 -7 -55 -7 -55 -44 -58 -36
-3 -37 -3 -42 40 -3 24 -17 367 -31 763 -14 396 -28 779 -30 850 -10 233 -44
1205 -50 1395 -3 102 -8 220 -11 262 l-6 76 29 5 c15 2 31 5 35 6 4 0 9 -18
12 -41z"/>
</g>
</svg>
